<svg id="Layer_1" data-name="Layer 1" xmlns="http://www.w3.org/2000/svg" viewBox="0 0 322.23 500"><path d="M320.73,249.29l-69.9-59.92Q178.11,127,105.35,64.74C95.18,56.06,89.25,45.57,90.82,32c1.6-13.73,8.9-23.76,21.86-29.08C126-2.54,138.38-.25,149.25,8.87c18.08,15.17,35.89,30.65,53.81,46q96.17,82.35,192.36,164.65c11.95,10.2,18.87,22.47,14.25,38a44,44,0,0,1-12.55,19.89Q272.89,384.61,148,491c-15.68,13.4-37.86,11.6-50.62-3.71-13.08-15.68-10.83-37,5.55-51.06q105.61-90.53,211.27-181C316.24,253.47,318.21,251.58,320.73,249.29Z" transform="translate(-88.88)"/></svg>