<svg id="Layer_1" data-name="Layer 1" xmlns="http://www.w3.org/2000/svg" viewBox="0 0 500 500"><defs><style>.cls-1{fill:#8fcc91;}.cls-2{fill:#25ae88;}.cls-3{fill:#fefefe;}</style></defs><path class="cls-1" d="M242.39,58.2c.05-.21.09-.42.13-.63H250A15,15,0,0,1,242.39,58.2Z"/><path class="cls-1" d="M271,57.57c0,.21.08.42.13.63a14.92,14.92,0,0,1-7.61-.63Z"/><circle class="cls-2" cx="250" cy="250" r="250"/><path class="cls-3" d="M126.41,250c.1-6.41,2.91-11.24,8.75-14,6.19-2.88,12.1-1.92,17.12,2.62,4.56,4.12,8.78,8.62,13.13,13,15.35,15.35,30.77,30.62,46,46.11,2.72,2.78,4.09,2.53,6.69-.08q64.8-65.06,129.77-130c4.68-4.69,9.82-7.41,16.52-5.66a15.5,15.5,0,0,1,8.37,24.47,37.28,37.28,0,0,1-3.61,3.93q-70.41,70.44-140.85,140.86c-9.64,9.64-17.49,9.66-27.05.1q-34.53-34.51-69.08-69C128.66,258.87,126.29,255,126.41,250Z"/></svg>