<svg id="Layer_1" data-name="Layer 1" xmlns="http://www.w3.org/2000/svg" viewBox="0 0 500 491.6"><path d="M253.91,0c3.8,3,8,5.53,11.35,8.9Q317,60.37,368.41,112.15a23,23,0,0,1,6.28,11.11c1.76,9.29-5.88,17.26-15.86,17.33-16.92.11-33.84,0-50.76,0H302v5.93c0,38.56-.41,77.13.19,115.68.27,17.72-11.86,30.22-29.73,29.61-15.28-.51-30.59-.07-45.88-.11-17.93-.05-28.55-10.62-28.57-28.5Q198,205.11,198,147v-6.43h-5.56c-16.44,0-32.87-.13-49.3,0-7.76.09-13.82-2.44-16.89-9.83s-.23-13.4,5.21-18.83Q184.38,59.33,237.17,6.5c2.58-2.57,5.93-4.35,8.92-6.5Z"/><path d="M500,388.67c-3.17,2.59-6,6.05-9.57,7.63q-107.31,47-214.78,93.55c-1.31.56-2.67,1-4.46,1.65a38.46,38.46,0,0,1-.42-4q0-21-.07-42c0-2.75.66-4.3,3.37-5.54q111.85-51.1,223.63-102.4a14.31,14.31,0,0,1,2.3-.65Z"/><path d="M0,336.91c8.3,3.64,16.66,7.15,24.9,10.93L224.62,439.3c3.44,1.57,4.81,3.24,4.74,7.16-.28,14.77-.11,29.55-.11,45.14-2-.75-3.46-1.22-4.86-1.83Q116.08,442.69,7.82,395.45c-3-1.32-5.23-4.48-7.82-6.78Z"/><path d="M343.75,230.46,499.93,302c-8,3.73-15.05,7.05-22.14,10.3L254.53,414.67c-2.8,1.28-5.14,1.8-8.23.38Q125.64,359.58,4.89,304.33c-1.3-.6-2.57-1.3-4.62-2.35l156-71.47v34c.09,34.93,23.87,62.81,58.28,68.18a72.2,72.2,0,0,0,10.7.58q24.66.08,49.3,0c39.89-.15,69.17-29.57,69.22-69.52C343.76,252.89,343.75,242.06,343.75,230.46Z"/></svg>