<svg width="25" height="24" viewBox="0 0 25 24" fill="none" xmlns="http://www.w3.org/2000/svg">
<g clip-path="url(#clip0_1709_327)">
<path d="M0 11.3048C0.112719 10.8508 0.412801 10.5271 0.732922 10.2073C3.75746 7.18957 6.77999 4.16914 9.80051 1.14603C11.0665 -0.121306 12.9351 -0.36435 14.455 0.551201C14.7301 0.724675 14.9843 0.929317 15.2125 1.16107C16.0952 2.02701 16.9659 2.90648 17.8406 3.78044C17.86 3.7963 17.8804 3.81086 17.9017 3.82403C17.9097 3.75287 17.9218 3.69374 17.9223 3.63511C17.9223 3.21166 17.9128 2.78821 17.9268 2.36527C17.9498 1.65718 18.4127 1.09141 19.06 0.957611C19.7072 0.823812 20.371 1.13701 20.637 1.74237C20.7376 1.98995 20.7887 2.25487 20.7873 2.52212C20.8019 3.85661 20.7903 5.1916 20.8004 6.52659C20.806 6.65851 20.8578 6.78426 20.9466 6.88188C22.1249 8.07406 23.3142 9.2557 24.4965 10.4439C25.1192 11.0698 25.1653 11.8901 24.6213 12.4985C24.3818 12.7638 24.0511 12.9291 23.6953 12.9614C23.3394 12.9937 22.9844 12.8907 22.701 12.6729C22.5934 12.586 22.4911 12.4926 22.3949 12.3932C19.3457 9.3444 16.2964 6.29474 13.2472 3.24423C12.7077 2.70453 12.2903 2.70603 11.7443 3.24975C8.679 6.31729 5.61289 9.38449 2.54594 12.4514C1.97884 13.0186 1.30253 13.1294 0.688335 12.7611C0.317115 12.5396 0.131756 12.1853 0 11.7929V11.3048Z" fill="#434E52"/>
<path d="M14.8245 23.2716V16.9149H10.17V23.2711C10.0788 23.2771 10.0162 23.2851 9.95353 23.2851C8.67605 23.2851 7.39858 23.2916 6.1216 23.2851C4.74292 23.2756 3.70741 22.3951 3.48999 21.0521C3.46985 20.899 3.46198 20.7445 3.46645 20.5901C3.46645 18.6533 3.46645 16.7164 3.46144 14.7796C3.45695 14.6381 3.4827 14.4973 3.53695 14.3665C3.5912 14.2358 3.67272 14.1181 3.77605 14.0214C6.4833 11.322 9.18805 8.61927 11.8903 5.9132C12.3201 5.48324 12.6783 5.48174 13.1056 5.90869C15.8109 8.61209 18.5161 11.3155 21.2214 14.0189C21.3251 14.1152 21.4072 14.2325 21.4623 14.3629C21.5173 14.4934 21.544 14.634 21.5405 14.7756C21.5325 16.753 21.5405 18.7304 21.5335 20.7079C21.5338 21.3156 21.3195 21.904 20.9284 22.3691C20.5373 22.8342 19.9945 23.1462 19.3959 23.2501C19.2353 23.2765 19.0726 23.2884 18.9099 23.2856C17.6164 23.2886 16.3229 23.2886 15.0294 23.2856C14.9728 23.2851 14.9172 23.2776 14.8245 23.2716Z" fill="#434E52"/>
</g>
<defs>
<clipPath id="clip0_1709_327">
<rect width="25" height="23.2877" fill="white"/>
</clipPath>
</defs>
</svg>
