<svg id="Layer_1" data-name="Layer 1" xmlns="http://www.w3.org/2000/svg" viewBox="0 0 500 500"><defs><style>.cls-1{fill:#fff;}</style></defs><path d="M172.85,500H160.16c-2.91-.92-5.83-1.79-8.73-2.75Q90.51,477,29.6,456.66C14.28,451.51,4.6,441,.89,425.05a14.47,14.47,0,0,0-.89-2.2V35.16c.41-1.19.87-2.35,1.21-3.55Q7.32,10,28.36,2.2c2.23-.82,4.53-1.47,6.8-2.2H278.32c1.23.34,2.45.77,3.7,1,27.09,4.76,49.82,28.88,50.83,55.62.88,23.24.33,46.54.27,69.81,0,6-2.87,11-7.56,14.71-6.56,5.2-14,6.18-21.55,2.78-7.8-3.5-12.12-9.8-12.19-18.44-.15-20-.05-40-.08-60,0-15.37-8.19-23.65-23.38-23.66H181.44c-1.4,0-2.8.12-4.38.2.34.5.45.86.66.95,22.8,9.66,30.53,21.32,30.53,46.12V395.75h59.37c16.18,0,24.11-8,24.12-24.39V294.21a31.9,31.9,0,0,1,.77-8.21c2.6-9.67,12.22-16.19,21.79-15.08,10.88,1.26,18.73,9.3,18.8,20.16q.31,41.75.06,83.5c-.25,35.79-27.55,62.8-63.35,62.91-18.72.06-37.43,0-56.15,0h-5.55c0,8.06.21,15.36,0,22.66-.45,13-5.87,23.81-16.48,31.16C186,495.19,179.15,497.17,172.85,500Z"/><path d="M500,212.89c-3.79,5.16-7,10.86-11.47,15.38C463.18,254,437.51,279.43,412,305c-5.51,5.53-11.89,8.55-19.76,7.13C381.88,310.28,375.08,301.9,375,291c-.09-18.55,0-37.1,0-55.65v-6H293.42c-11.64,0-20-6.5-22.09-16.75-2.66-13.29,7-24.9,21-25,25.55-.1,51.1,0,76.65,0h6v-5.39c0-18.39.08-36.78,0-55.17-.06-9.76,3.76-17.25,12.85-21s17.11-1.32,24,5.6c27,27.08,54.14,54,81,81.24,3.07,3.11,4.81,7.53,7.16,11.35Z"/><path class="cls-1" d="M35.16,0c-2.27.73-4.57,1.38-6.8,2.2Q7.3,10,1.21,31.61C.87,32.81.41,34,0,35.16V0Z"/></svg>