<svg id="Layer_1" data-name="Layer 1" xmlns="http://www.w3.org/2000/svg" viewBox="0 0 500 500.07"><path d="M221.68,0h56.64a11.17,11.17,0,0,0,1.76.8c14,3.62,22,12.71,24.19,26.8C306,39,307.34,50.48,308.56,62c.36,3.38,1.62,5,4.86,6.21,7.16,2.61,14.22,5.56,21.13,8.77,2.67,1.24,4.36.88,6.51-.83,8.78-7,17.68-13.84,26.55-20.71,14.51-11.22,30.58-10.41,43.57,2.35q15.68,15.41,31.07,31.07c12.63,12.84,13.59,28.87,2.65,43.18-7,9.18-14.24,18.19-21.13,27.46A6.72,6.72,0,0,0,423,165c2.86,7.6,6,15.11,9.38,22.47a7.34,7.34,0,0,0,4.68,3.73c11.09,1.66,22.24,3,33.39,4.26,9.3,1.08,17.48,4.52,22.86,12.36,2.88,4.19,4.48,9.27,6.65,13.94v56.64a9.66,9.66,0,0,0-.81,1.76c-3.78,14.37-13.28,22.32-27.77,24.37q-16.67,2.37-33.4,4.12c-3.38.35-5.06,1.62-6.21,4.87a196.17,196.17,0,0,1-8.14,19.81c-1.63,3.38-1.66,5.61.82,8.61,7,8.54,13.72,17.35,20.43,26.15,10.91,14.28,9.94,30.34-2.69,43.19q-15.39,15.66-31.06,31.07c-12.8,12.61-28.93,13.56-43.18,2.62q-13.55-10.41-26.95-21c-2.15-1.71-3.85-2.07-6.51-.84-7.07,3.26-14.26,6.29-21.57,9-2.94,1.07-4,2.59-4.33,5.54-.91,8.74-2,17.45-3.17,26.15-1.06,8-1.64,16.17-6.67,23.15s-12.34,10.8-20.47,13.14H221.68a10.33,10.33,0,0,0-1.76-.8c-13.93-3.65-22-12.7-24.19-26.81-1.73-11.46-3.06-23-4.3-34.46-.36-3.35-1.57-5.07-4.84-6.25-7-2.52-13.92-5.43-20.7-8.54-2.7-1.24-4.54-1.27-6.94.66-8.87,7.13-17.88,14.1-26.95,21-14.37,10.92-30.42,9.94-43.19-2.66q-15.65-15.43-31.08-31.07C45.1,398.37,44.14,382.33,55.12,368c7-9.18,14.23-18.2,21.12-27.47a6.68,6.68,0,0,0,.71-5.46c-2.86-7.59-6-15.1-9.37-22.47a7.34,7.34,0,0,0-4.7-3.71c-11.09-1.66-22.24-2.95-33.38-4.26-8.75-1-16.68-4.05-21.93-11.26-3.25-4.48-5.09-10-7.57-15V220.7a7.2,7.2,0,0,0,.93-1.58c4.12-14,13.61-21.71,27.91-23.62,11.16-1.5,22.24-2.9,33.39-4.09,3.19-.35,4.75-1.6,5.87-4.62,2.64-7.15,5.52-14.23,8.75-21.13,1.34-2.84.92-4.61-.9-6.89q-10.64-13.35-21-26.94c-10.86-14.22-9.76-30.38,2.9-43.14Q73.17,73.27,88.58,58c13-12.87,28.91-13.92,43.5-2.81,9.19,7,18.2,14.2,27.44,21.11a6.22,6.22,0,0,0,5,.83q11.82-4.48,23.37-9.68a6.31,6.31,0,0,0,3.17-4.11c1.31-8.51,2.17-17.08,3.3-25.62s1.43-17.2,6.83-24.58C206.38,6.07,213.48,2.23,221.68,0ZM354.14,253.11c2.5-56.38-42.73-104.52-100.78-107.26C197,143.2,148.67,188.42,145.86,246.39c-2.74,56.76,42.83,105.26,101.27,107.77C303.45,356.57,351.57,311.13,354.14,253.11Z" transform="translate(0)"/></svg>