<svg xmlns="http://www.w3.org/2000/svg" xml:space="preserve" style="enable-background:new 0 0 37 38" viewBox="0 0 37 38"><path d="M35.1 25.1c-2.8-1.6-5.6-3.3-8.2-5.3-.1 0-.1.1-.1.1-1.1 1.9-2.1 3.9-3.1 5.9-.1.2-.1.2.1.3 1.6.1 3.2.1 4.8.1.6 0 1.2 0 1.8-.1h.7c-.5 0-1 .1-1.5.1-2 .2-4 .2-6 .2h-.2c-.1 0-.1.1-.1.1-1.5 3.2-2.9 6.6-4.1 10-.1.3-.3.7-.6.9-.2.2-.6.4-.9.4-.3 0-.7-.1-.9-.3-.3-.3-.6-.6-.7-1-.5-1-.8-2.1-1.1-3.2-.7-2.6-1.2-5.2-1.6-7.8-.1-.5-.1-.5-.5-.6-3.1-.8-6-2.1-8.7-3.7-1.1-.6-2.1-1.4-3.1-2.1-.3-.2-.6-.5-.9-.8-.4-.6-.3-1.1.3-1.5.6-.3 1.2-.5 1.8-.6l8.7-2.4c.2-.1.4-.1.6-.2.1 0 .2-.1.2-.2-.1-.8-.1-1.6-.2-2.4-.2-2.5-.3-5.1-.1-7.6.1-.7.2-1.6.5-2.4.1-.2.2-.4.3-.5.2-.3.5-.4.8-.5.3-.1.6 0 .9.2 0 0 .1 0 .1.1.4.4.8.8 1 1.3.7 1.4 1.4 2.7 2.1 4.1.8 1.6 1.7 3.1 2.6 4.6.1.2.2.2.3.1 4.9-2.2 9.6-4.9 14-7.9.4-.3.8-.5 1.2-.6.3-.1.6-.1.9 0 .3.1.5.3.7.6.1.1.1.3.1.4 0 .4-.1.8-.3 1.2-.7 1.4-1.6 2.7-2.5 4-2.4 3.6-4.8 7.3-6.9 11.1-.1.2-.1.2.1.3 2.4 2 5 3.7 7.6 5.4l.1.2zm-13.8.9c.1 0 .2 0 .2-.1.3-.6.5-1.1.8-1.7.9-1.8 1.9-3.7 2.9-5.5 0 0 .1-.1.1-.2s0-.1-.1-.2c-.2-.2-.5-.4-.7-.6-1.6-1.5-3.1-3.2-4.4-5.1 0-.1-.1-.1-.1-.1h-.2c-.4.2-.7.3-1.1.4-1.5.6-3 1.1-4.6 1.6-.1 0-.2 0-.2.2.1.5.1 1.1.2 1.6l.6 4.2c.2 1.4.4 2.7.6 4.1 0 .1 0 .1.1.1l.1.1c1.8.6 3.8 1 5.8 1.2zm-9.2-10.7c-.1 0-.1 0 0 0-2.7.7-5.3 1.4-7.9 2.1-.4.1-.9.3-1.3.5-.3.2-.4.4-.2.7.1.2.3.3.4.4.6.6 1.3 1 1.9 1.4 2.3 1.4 4.7 2.6 7.2 3.6.3.1.7.2 1 .4-.5-3.1-.8-6.1-1.1-9.1zM32 7.2c0-.3-.1-.4-.4-.4-.1 0-.2 0-.3.1-.6.2-1.1.5-1.6.8-2.7 1.6-5.4 3-8.3 4.2-.2.1-.5.2-.6.3-.1.2.2.4.3.6 1.2 1.8 2.6 3.5 4.2 5.1.2.2.2.2.3 0 1.4-2.4 2.8-4.8 4.4-7.1.6-.8 1.1-1.7 1.6-2.6.3-.4.4-.7.4-1zm-18.4 5.9c.1 0 .2 0 .3-.1 1.6-.6 3.2-1.2 4.7-1.9.2-.1.2-.1.1-.3-1.1-1.6-2.1-3.4-3-5.1-.4-.8-.8-1.6-1.4-2.4l-.4-.4c-.2-.2-.4-.1-.6.1-.1.2-.2.5-.2.7-.1 1.2 0 2.4 0 3.5 0 1.3.2 2.6.3 3.9.1.7.2 1.4.2 2zm7.6 13.3c-1.9-.1-3.8-.4-5.6-.8-.2 0-.2 0-.2.2.3 1.5.5 2.9.8 4.4.3 1.6.8 3.2 1.3 4.7 0 .1 0 .2.1.2 1.1-2.9 2.3-5.8 3.6-8.7z" style="fill:#f05b2a"/></svg>