<svg id="Layer_1" data-name="Layer 1" xmlns="http://www.w3.org/2000/svg" viewBox="0 0 500 223.96"><defs><style>.cls-1{fill:#f05b2a;}.cls-2{fill:#424143;}</style></defs><path fill="#f05b2a" d="M204.55,148c-16.44-9.44-32.64-19.27-47.6-31-.44.14-.49.52-.65.81-6.33,11.47-12.44,23.06-18.11,34.87-.71,1.47-.71,1.45.84,1.55,9.27.56,18.55.67,27.82.53,3.5,0,7-.27,10.5-.38,1.26,0,2.51,0,3.79.07-2.86.27-5.72.57-8.58.82a309.89,309.89,0,0,1-35,1,1.53,1.53,0,0,0-1.67,1.06,551.35,551.35,0,0,0-23.73,58.72,13.44,13.44,0,0,1-3.26,5.47,7.7,7.7,0,0,1-10.76.31A17.36,17.36,0,0,1,93.91,216a103.38,103.38,0,0,1-6.32-19c-3.89-15.16-6.83-30.5-9.25-45.95-.44-2.82-.43-2.83-3.11-3.49-18.12-4.49-34.79-12.3-50.62-22-6.19-3.81-12.15-8-18-12.24a22.33,22.33,0,0,1-5.05-4.94C-1,104.8-.38,101.7,3.37,99.45c3.32-2,7.06-2.77,10.72-3.77q25.46-7,50.93-13.91c1.14-.31,2.25-.7,3.4-1,.83-.19,1.1-.56,1-1.43-.41-4.66-.82-9.32-1.14-14-1-14.93-1.8-29.86-.76-44.82.35-4.89.65-9.77,2.44-14.41a12.66,12.66,0,0,1,1.73-3.22A6.86,6.86,0,0,1,81.78,1.63a23.06,23.06,0,0,1,6,7.83c4.07,8.07,8,16.19,12.12,24.26,4.68,9.28,9.62,18.43,15,27.35.59,1,1,1,2,.6a510.16,510.16,0,0,0,81.7-46.74,33.44,33.44,0,0,1,7.18-3.76A7.07,7.07,0,0,1,215.62,17a12.69,12.69,0,0,1-1.79,7.13C209.6,32.36,204.38,40,199.3,47.66,185.19,69,171.55,90.7,159,113c-.52.92-.4,1.34.38,2,13.8,11.87,28.86,22,44.07,31.9l1.3.86Zm-80.55,5c.65.25,1-.16,1.33-.86,1.52-3.29,3-6.57,4.63-9.83q7.9-16.33,16.79-32.15a1.35,1.35,0,0,0-.36-2.06c-1.44-1.19-2.83-2.47-4.19-3.77a206.89,206.89,0,0,1-25.73-29.87,1.37,1.37,0,0,0-2-.55c-2.06.94-4.16,1.8-6.27,2.64-8.76,3.49-17.66,6.61-26.57,9.7-.61.21-1.22.28-1.09,1.26.42,3.16.71,6.34,1.12,9.5q1.62,12.33,3.31,24.67c1.09,8.05,2.37,16.06,3.75,24.07A1.29,1.29,0,0,0,89.8,147,268.15,268.15,0,0,0,124,153.07ZM70.42,90a4.92,4.92,0,0,0-.57.09c-15.16,4.18-30.41,8-45.46,12.57A36,36,0,0,0,17,105.46c-2,1.13-2.33,2.5-.95,4.39a16.72,16.72,0,0,0,2.33,2.5,73.59,73.59,0,0,0,10.84,7.81,254.92,254.92,0,0,0,41.86,21c1.9.75,3.81,1.46,6,2.28C74.19,125.58,72.27,107.84,70.42,90Zm116.2-47.79c.07-1.92-.47-2.45-2.07-2.4a6.9,6.9,0,0,0-1.92.39,48.69,48.69,0,0,0-9.38,4.63A488.19,488.19,0,0,1,125,69.58c-1.2.53-3.11.89-3.37,1.73-.32,1.07,1.18,2.26,1.93,3.37a191.92,191.92,0,0,0,24.53,30c1.13,1.11,1.15,1.11,1.92-.28,7.9-14.31,16.54-28.17,25.36-41.92,3.22-5,6.7-9.93,9.41-15.28A15.62,15.62,0,0,0,186.62,42.25ZM79.42,76.9A3.79,3.79,0,0,0,81,76.48q13.88-5,27.34-11c1.06-.47,1.34-.76.62-1.86C102.68,53.9,96.91,43.87,91.37,33.7c-2.57-4.72-4.89-9.58-8-14A12.74,12.74,0,0,0,80.92,17c-1.44-1.12-2.58-.84-3.35.8a12.56,12.56,0,0,0-1,4.31c-.64,7-.12,13.89.15,20.84.29,7.77,1,15.52,1.71,23.27C78.69,69.78,79.07,73.34,79.42,76.9Zm44.2,78.77a252.73,252.73,0,0,1-32.7-4.47c-1.34-.28-1.4-.18-1.17,1.19q2.2,12.92,4.92,25.72a222,222,0,0,0,7.57,27.76c.15.42.17.93.73,1.23C109,189.63,115.86,172.55,123.62,155.67Z"/><path fill="#424143" d="M366,128c0,5.29,0,10.59,0,15.88,0,.95-.29,1.33-1.18,1.46-7.44,1.06-14.87,2.3-22.43,1.84a35.57,35.57,0,0,1-9.75-1.8c-5.69-2-8.95-6.14-10.52-11.8a51.16,51.16,0,0,1-1.72-12.83c-.13-7.68-.65-15.38.41-23,.59-4.33,1.63-8.51,4.07-12.19,3.34-5,8.37-7.22,14.13-8a33.82,33.82,0,0,1,11.87.32c9.06,1.92,14.5,8.28,15,17.52,0,1,0,1.93.07,2.89s-.29,1-1.07,1c-3.76-.07-7.52-.14-11.29-.11-1.21,0-1.7-.29-1.63-1.6a13,13,0,0,0-1-5.77,6.3,6.3,0,0,0-2.72-3.26c-3.48-2-9.38-1.78-11.55,3.58a30.75,30.75,0,0,0-1.93,10.65,183.12,183.12,0,0,0,.38,23.07,23.6,23.6,0,0,0,1.62,7.26,6.74,6.74,0,0,0,6.08,4.26,20.15,20.15,0,0,0,8-1,1.16,1.16,0,0,0,1-1.29c0-4.28,0-8.57,0-12.85,0-.91-.37-1.1-1.19-1.07-1.84,0-3.68,0-5.51,0-.79,0-1.07-.26-1.06-1.07.05-2.79,0-5.59,0-8.39,0-.76.23-1,1-1q9.92,0,19.83,0c.94,0,1,.36,1,1.16C366,117.23,366,122.61,366,128Z"/><path fill="#424143" d="M418.65,145.91c-2.06,0-4.12,0-6.17,0-.91,0-1.3-.23-1.51-1.14-1-4.29-2.14-8.55-3.15-12.84-.19-.82-.51-1.07-1.31-1.06q-8.6,0-17.2,0c-.76,0-1.15.19-1.35,1-1.07,4.32-2.24,8.61-3.31,12.93a1.21,1.21,0,0,1-1.44,1.08c-3.94,0-7.88-.06-11.82,0-1.07,0-1.13-.37-.9-1.21q3.39-12.1,6.75-24.22,4.11-14.76,8.2-29.53c1.12-4,2.27-8.07,3.36-12.12a1,1,0,0,1,1.18-.92c5.64,0,11.29,0,16.94,0,.91,0,1,.56,1.11,1.13q1.94,7,3.85,14,3.47,12.75,6.92,25.52,3.51,12.95,7.08,25.89c.31,1.12.26,1.52-1.06,1.45C422.77,145.83,420.71,145.91,418.65,145.91ZM397.39,91.4c-2.1,9.4-4.13,18.56-6.23,27.69-.24,1-.09,1.29,1,1.27,3.72,0,7.43-.06,11.15,0,1.1,0,1.23-.36,1-1.29-2-8.27-3.91-16.55-5.9-24.82A6,6,0,0,0,397.39,91.4Z"/><path fill="#424143" d="M250.66,126.87c.53-2.1,1.07-4.2,1.57-6.31q3-12.74,6.07-25.47c1.22-5.14,2.48-10.27,3.64-15.42.26-1.14.69-1.53,1.89-1.5,3.76.08,7.53.06,11.29,0,1.05,0,1.36.16,1.05,1.29-1.81,6.61-3.54,13.24-5.3,19.86q-4,15.24-8.11,30.49c-1.33,5-2.67,10-4,15.06a1.2,1.2,0,0,1-1.4,1.09c-4.81-.06-9.63-.05-14.44,0-.85,0-1.23-.23-1.43-1.06q-4.2-17.16-8.47-34.31-3.66-14.8-7.37-29.6c-.7-2.81-.74-2.8,2.08-2.8,3.63,0,7.26,0,10.9,0,.84,0,1.23.21,1.41,1.08q3.33,15.75,6.72,31.5c1.15,5.36,2.33,10.71,3.49,16.07Z"/><path fill="#424143" d="M279.64,112.05c0-10.76,0-21.52,0-32.28,0-1.26.33-1.61,1.6-1.6q17.13.08,34.28,0c1.07,0,1.41.27,1.37,1.37-.08,2.57-.08,5.16,0,7.74,0,1-.31,1.35-1.34,1.35-6.74,0-13.48,0-20.22,0-1.05,0-1.32.25-1.31,1.29q.09,7,0,14c0,1.09.3,1.41,1.39,1.41,6.09,0,12.17,0,18.26,0,1.05,0,1.46.22,1.42,1.36-.09,2.53-.1,5.07,0,7.61,0,1.21-.41,1.46-1.51,1.45-6,0-12.08,0-18.12,0-1.18,0-1.46.31-1.44,1.46.06,5.65.07,11.29,0,16.93,0,1.28.41,1.47,1.54,1.46,6.83,0,13.66,0,20.48-.05,1.31,0,1.63.4,1.59,1.64-.09,2.57,0,5.16,0,7.74,0,.82-.2,1.13-1.1,1.13q-17.87,0-35.73,0c-1.15,0-1.12-.56-1.12-1.37Q279.65,128.32,279.64,112.05Z"/><path fill="#f05b2a"  d="M484.16,117.69c0,9,0,17.93,0,26.89,0,1.1-.3,1.41-1.39,1.39-3.81-.07-7.61-.08-11.42,0-1.2,0-1.42-.36-1.42-1.47,0-17.89,0-35.77.05-53.65,0-1.17-.28-1.46-1.44-1.44-4.33.07-8.66,0-13,0-1.08,0-1.47-.31-1.45-1.41.06-2.88.05-5.77,0-8.65,0-.89.23-1.22,1.18-1.22q21.72,0,43.45,0c.9,0,1.24.23,1.23,1.17-.05,2.93-.06,5.86,0,8.79,0,1.08-.4,1.33-1.39,1.32-4.38,0-8.75,0-13.13,0-1.13,0-1.35.34-1.34,1.39C484.18,99.77,484.16,108.73,484.16,117.69Z"/><path fill="#f05b2a"  d="M436.15,112.05c0-10.84,0-21.69,0-32.53,0-1.1.29-1.39,1.38-1.37,3.89.07,7.79.06,11.68,0,.94,0,1.15.26,1.15,1.17q0,32.79,0,65.59c0,1-.25,1.25-1.23,1.23-3.9-.05-7.79-.06-11.69,0-1.06,0-1.28-.3-1.28-1.31Q436.18,128.45,436.15,112.05Z"/><path  d="M205.08,148l.17.14-.18.09s-.1-.06-.1-.06A1,1,0,0,1,205.08,148Z"/></svg>