<svg id="Layer_1" data-name="Layer 1" xmlns="http://www.w3.org/2000/svg" viewBox="0 0 322.23 500"><path d="M179.27,250.71l69.9,59.92Q321.89,373,394.65,435.26c10.17,8.68,16.1,19.17,14.53,32.72-1.6,13.73-8.9,23.76-21.86,29.08-13.31,5.48-25.7,3.19-36.57-5.93-18.08-15.17-35.89-30.65-53.81-46q-96.16-82.35-192.36-164.65c-12-10.2-18.87-22.47-14.25-38a44,44,0,0,1,12.55-19.89Q227.11,115.4,352,9c15.68-13.4,37.86-11.6,50.62,3.71,13.08,15.68,10.83,37-5.55,51.06q-105.61,90.53-211.27,181C183.76,246.53,181.79,248.42,179.27,250.71Z" transform="translate(-88.88 0)"/></svg>