<svg id="Layer_1" data-name="Layer 1" xmlns="http://www.w3.org/2000/svg" viewBox="0 0 498.83 379.61"><path d="M488.14,130.83q-158.28.07-316.57,0c-9,0-11.91,2.9-11.91,11.95V339.06c0,8.85,2.86,11.73,11.58,11.73q158.53,0,317.06.06c5.47,0,9.45-1.68,11.6-6.87V137.47C497.62,132.34,493.46,130.83,488.14,130.83ZM471.88,321.47c-1.8,4-5.13,5.37-9.7,5.37q-132.4-.09-264.82,0c-7.29,0-9.67-2.25-9.67-9.17V164.3c0-7.07,2.41-9.33,9.95-9.33H462.06c4.45,0,7.92,1.19,9.83,5.19Z" transform="translate(-1.07 -59.72)"/><path d="M329.6,439.31H260c-4.44,0-8.41-1-11.33-4.47s-4.13-7.74-2.18-12.23c2-4.66,5.52-7.68,10.76-7.79,9.58-.18,19.16-.27,28.73-.05,3.51.07,4.75-.64,4.63-4.46-.3-10.38,0-20.78-.18-31.17-.07-3.29,1-4,4.08-3.95q35.31.18,70.62,0c3.25,0,4.1.91,4.05,4.07-.18,10.55,0,21.11-.14,31.66-.05,3,.78,3.91,3.81,3.84,8.44-.2,16.88-.08,25.33-.06,10,0,16,4.75,15.85,12.42-.14,7.5-6.15,12.17-15.71,12.17Z" transform="translate(-1.07 -59.72)"/><path d="M197,379.6c.07-3.86-1.18-4.51-4.64-4.4-7.62.26-15.26,0-22.89.1A32.9,32.9,0,0,1,154,372C140.8,365.16,135,354,135,339.46c.11-30.52-.05-61,.11-91.57,0-3.81-.93-4.86-4.81-4.86-24.55.18-49,.08-73.55.08-6.34,0-12.68.14-19-.11a12,12,0,0,1-11.64-9.85A12.18,12.18,0,0,1,33,219.89c2.55-1.33,5.3-1.33,8.07-1.33,29.54,0,59.1-.11,88.64.13,4.65,0,5.65-1.39,5.45-5.67-.33-7.13-.28-14.29,0-21.42.15-3.6-.74-4.6-4.49-4.6-29.55.18-59.1.09-88.65.09a39.42,39.42,0,0,1-4.86-.09,12.31,12.31,0,0,1-10.36-7.81c-1.84-4.36-1-8.61,2.16-12.26,3-3.49,6.87-4.36,11.33-4.36,30,.09,60.1,0,90.1.14,3.93,0,4.88-1.11,4.79-4.87a215.29,215.29,0,0,1,.47-22.86c.3-3.72-.72-4.18-4-4.18q-44.81.09-89.62.06a50.31,50.31,0,0,1-5.35-.15A12,12,0,0,1,28.06,112c3.05-4.49,7.45-5.69,12.64-5.69,50.31.07,100.62,0,150.93.16,4.64,0,5.53-1.38,5.37-5.59-.32-8.6-.1-17.21-.1-25.81,0-10.65-4.7-15.36-15.38-15.36H16.4c-10.61,0-15.33,4.77-15.33,15.43V423.41c0,11.29,4.57,15.89,15.85,15.89h102.3q31.65.06,63.32,0c9.37,0,14.37-5,14.37-14.41C196.93,409.79,196.76,394.69,197,379.6ZM98.74,367.44a19,19,0,0,1-18.65-19.1c.16-10.26,9-18.9,19.18-18.68a19.2,19.2,0,0,1,18.64,19.21A19,19,0,0,1,98.74,367.44Z" transform="translate(-1.07 -59.72)"/></svg>