<svg id="Layer_1" data-name="Layer 1" xmlns="http://www.w3.org/2000/svg" viewBox="0 0 500 499.4"><path d="M495,190.89c-12.23-12.27-24.38-24.62-36.82-36.67-3.3-3.19-3.87-4.88-.21-8.38,12.63-12.1,24.86-24.61,37.19-37,7.37-7.41,6.2-14.45-3.19-18.9Q399.33,46,306.62,2.12c-7.16-3.39-10-2.87-15.55,2.66-12.61,12.59-25.28,25.12-37.74,37.86-2.55,2.61-3.88,2.86-6.57.09-12.19-12.53-24.65-24.81-37-37.17-6.5-6.5-9.05-6.93-17.15-3.08L8.59,89.71c-10.07,4.77-11.33,11.55-3.53,19.36,12.59,12.61,25.14,25.27,37.86,37.74,2.43,2.39,2.62,3.71.07,6.21-13,12.7-25.76,25.58-38.57,38.45-6.83,6.87-5.56,14.18,3.14,18.31,12.74,6.06,25.43,12.22,38.3,18,3.48,1.56,4.34,3.5,4.32,7.12-.17,25.31-.09,50.63-.09,76,0,25.14.14,50.3-.1,75.44-.06,6.61,2.16,10.7,8.18,13.84q92.67,48.51,185.12,97.47c5,2.64,9.27,2.2,14.07-.33q92.07-48.61,184.26-97c6.13-3.21,8.42-7.41,8.4-14.26-.21-50.13-.06-100.26-.21-150.39,0-4.2,1-6.39,5-8.19,12.44-5.49,24.65-11.52,36.91-17.43C501.48,205.36,502.64,198.53,495,190.89ZM269.33,54.78C279.64,44.61,289.92,34.4,300,24c2.1-2.14,3.6-1.24,5.59-.3q53.73,25.5,107.49,50.93,27.9,13.2,55.78,26.41c1.14.54,2.61.71,3.23,2.35-.5.55-1,1.18-1.58,1.75C460.3,115.41,450,125.58,439.88,136c-2.12,2.18-3.61,1.17-5.57.25q-69-32.73-138.09-65.39c-8.7-4.12-17.36-8.31-26.1-12.32C267.85,57.44,267.33,56.75,269.33,54.78ZM30,105.79c-2.56-2.48-2-3.32.84-4.66Q113,62.36,195,23.43c1.76-.83,3-1.35,4.73.39,10.27,10.45,20.68,20.76,31,31.12.47.47.89,1,1.35,1.47-.36,1.92-2.12,2-3.34,2.55Q197.12,74,165.39,89q-49.47,23.43-98.9,47c-3.12,1.49-5,1.43-7.56-1.22C49.47,124.92,39.78,115.29,30,105.79Zm1.6,93.3c-3.49-1.57-4.33-2.42-1.14-5.48Q45,179.62,59.05,165c2.4-2.5,4.13-2.65,7.13-1.22q53.67,25.63,107.46,51,27.45,13,54.88,26c1.3.61,2.54,1.35,4,2.15-.83.93-1.34,1.56-1.91,2.13-10.23,10.24-20.55,20.41-30.66,30.78-2.11,2.17-3.59,1.2-5.56.27q-64.08-30.39-128.19-60.72C54.7,209.94,43.21,204.36,31.58,199.09ZM239.75,473,196.3,450.18q-61-32.13-122.09-64.26C72,384.78,70,384.13,70,380.73q.2-70.19.09-140.36c1.78-1,2.94.4,4.13,1q59.21,28,118.34,56c8.19,3.89,10.69,3.46,17.16-3,9.81-9.86,19.6-19.74,30-30.26Zm13.94-245.89a7.48,7.48,0,0,1-7.32,0Q167.7,189.75,88.93,152.58c-1.46-.69-2.87-1.48-5.22-2.69l23.8-11.29q69.72-33,139.41-66.09a6.18,6.18,0,0,1,6-.17q80.68,38.34,161.44,76.57c.41.2.78.5,1.9,1.23L327.88,192C303.14,203.66,278.37,215.32,253.69,227.15Zm173,158.5Q345.26,428.27,264,471.09c-1.13.59-2.11,1.63-3.76,1.43V265.25c1.62-.44,2.11,1.17,2.91,2,9.48,9.37,18.86,18.83,28.31,28.23,5.12,5.1,8.11,5.64,14.71,2.53q58.54-27.63,117.05-55.32c2.05-1,4.11-1.94,6.75-3.17v4.93q0,67.46,0,134.9C430,382.16,429.64,384.1,426.68,385.65ZM468.74,199q-59.22,27.86-118.33,56c-15,7.1-30,14.15-45,21.35-2.42,1.17-3.9,1.16-5.92-.92q-14.62-15-29.66-29.67c-2.57-2.48-2-3.3.84-4.64q82.13-38.79,164.22-77.68l2.31-1.1c1.47.05,2.15,1.34,3.05,2.23,9.79,9.75,19.47,19.62,29.39,29.24C472.46,196.45,472.15,197.37,468.74,199Z"/></svg>