<svg id="Layer_1" data-name="Layer 1" xmlns="http://www.w3.org/2000/svg" viewBox="0 0 498.8 327.64"><path d="M500,370.37c-2.14,4.67-3.94,9.54-6.48,14-9.73,17-25.06,25.8-44,28.75A108,108,0,0,1,433,414.25q-182.46.09-364.92.06c-16.76,0-32.65-2.88-46.32-13.38-10.12-7.77-16.58-18-20.19-30.22-1.18-4,.17-5.53,4.11-5.38,1.13,0,2.27,0,3.41,0q241.41,0,482.82.05c2.69,0,5.37.71,8.05,1.09ZM213.59,398.14h73.7v-16.6h-73.7Z" transform="translate(-1.2 -86.67)"/><path d="M250.73,86.67h191c11.67,0,14.58,2.94,14.58,14.76V332.91c0,11.4-3.08,14.56-14.34,14.56H59c-11.25,0-14.34-3.16-14.34-14.57q0-116,0-231.95c0-11.15,3.09-14.27,14.09-14.27ZM80.77,311.4H420.11V122.91H80.77Z" transform="translate(-1.2 -86.67)"/></svg>