<svg id="Layer_1" data-name="Layer 1" xmlns="http://www.w3.org/2000/svg" viewBox="0 0 500 500"><defs><style>.cls-1{fill:#8fcc91;}.cls-2{fill:#25ae88;}.cls-3{fill:#fefefe;}</style></defs><path class="cls-1" d="M242.39,58.2c.05-.21.09-.42.13-.63H250A15,15,0,0,1,242.39,58.2Z"/><path class="cls-1" d="M271,57.57a2.83,2.83,0,0,0,.13.63,14.92,14.92,0,0,1-7.61-.63Z"/><circle class="cls-2" cx="250" cy="250" r="250"/><path class="cls-3" d="M83.4,250c.14-8.62,3.92-15.12,11.77-18.83,8.32-3.87,16.27-2.58,23,3.53,6.13,5.54,11.81,11.59,17.65,17.48,20.64,20.64,41.38,41.17,61.86,62,3.65,3.73,5.5,3.4,9-.11q87.13-87.48,174.5-174.8c6.29-6.31,13.2-10,22.21-7.61a20.84,20.84,0,0,1,11.25,32.9,50.5,50.5,0,0,1-4.85,5.28q-94.68,94.73-189.39,189.41c-13,13-23.52,13-36.37.13Q137.6,313,91.15,266.61C86.43,261.93,83.24,256.73,83.4,250Z"/></svg>